<?xml version="1.0" encoding="utf-8" standalone="no"?>
<!DOCTYPE svg PUBLIC "-//W3C//DTD SVG 1.1//EN"
  "http://www.w3.org/Graphics/SVG/1.1/DTD/svg11.dtd">
<svg xmlns:xlink="http://www.w3.org/1999/xlink" width="684pt" height="694.798125pt" viewBox="0 0 684 694.798125" xmlns="http://www.w3.org/2000/svg" version="1.1">
 <metadata>
  <rdf:RDF xmlns:dc="http://purl.org/dc/elements/1.1/" xmlns:cc="http://creativecommons.org/ns#" xmlns:rdf="http://www.w3.org/1999/02/22-rdf-syntax-ns#">
   <cc:Work>
    <dc:type rdf:resource="http://purl.org/dc/dcmitype/StillImage"/>
    <dc:date>2026-01-04T18:10:40.162476</dc:date>
    <dc:format>image/svg+xml</dc:format>
    <dc:creator>
     <cc:Agent>
      <dc:title>Matplotlib v3.9.3, https://matplotlib.org/</dc:title>
     </cc:Agent>
    </dc:creator>
   </cc:Work>
  </rdf:RDF>
 </metadata>
 <defs>
  <style type="text/css">*{stroke-linejoin: round; stroke-linecap: butt}</style>
 </defs>
 <g id="figure_1">
  <g id="patch_1">
   <path d="M 0 694.798125 
L 684 694.798125 
L 684 0 
L 0 0 
z
" style="fill: #ffffff"/>
  </g>
  <g id="axes_1">
   <g id="patch_2">
    <path d="M 7.2 687.598125 
L 676.8 687.598125 
L 676.8 22.318125 
L 7.2 22.318125 
z
" style="fill: #ffffff"/>
   </g>
   <g id="LineCollection_1">
    <path d="M 124.982938 266.653219 
L 125.223502 302.221307 
" clip-path="url(#p8b14a3b8f6)" style="fill: none; stroke: #08306b"/>
    <path d="M 124.982938 266.653219 
L 90.987823 308.834333 
" clip-path="url(#p8b14a3b8f6)" style="fill: none; stroke: #08306b"/>
    <path d="M 125.223502 302.221307 
L 65.305785 283.923193 
" clip-path="url(#p8b14a3b8f6)" style="fill: none; stroke: #08306b"/>
    <path d="M 125.223502 302.221307 
L 116.892809 345.994384 
" clip-path="url(#p8b14a3b8f6)" style="fill: none; stroke: #08306b"/>
    <path d="M 90.987823 308.834333 
L 65.305785 283.923193 
" clip-path="url(#p8b14a3b8f6)" style="fill: none; stroke: #08306b"/>
    <path d="M 90.987823 308.834333 
L 116.892809 345.994384 
" clip-path="url(#p8b14a3b8f6)" style="fill: none; stroke: #08306b"/>
    <path d="M 595.944771 99.943909 
L 550.31892 80.049034 
" clip-path="url(#p8b14a3b8f6)" style="fill: none; stroke: #eff6fc"/>
    <path d="M 595.944771 99.943909 
L 618.694215 140.503025 
" clip-path="url(#p8b14a3b8f6)" style="fill: none; stroke: #ccdff1"/>
    <path d="M 520.539904 577.434422 
L 577.206555 583.515973 
" clip-path="url(#p8b14a3b8f6)" style="fill: none; stroke: #f7fbff"/>
    <path d="M 520.539904 577.434422 
L 516.27914 629.867216 
" clip-path="url(#p8b14a3b8f6)" style="fill: none; stroke: #aacfe5"/>
    <path d="M 520.539904 577.434422 
L 485.362307 532.604675 
" clip-path="url(#p8b14a3b8f6)" style="fill: none; stroke: #aacfe5"/>
   </g>
   <g id="matplotlib.axis_1">
    <g id="xtick_1"/>
    <g id="xtick_2"/>
    <g id="xtick_3"/>
    <g id="xtick_4"/>
    <g id="xtick_5"/>
    <g id="xtick_6"/>
    <g id="xtick_7"/>
    <g id="xtick_8"/>
   </g>
   <g id="matplotlib.axis_2">
    <g id="ytick_1"/>
    <g id="ytick_2"/>
    <g id="ytick_3"/>
    <g id="ytick_4"/>
    <g id="ytick_5"/>
   </g>
   <g id="PathCollection_1">
    <defs>
     <path id="m1537099b4f" d="M 0 8.660254 
C 2.296726 8.660254 4.499694 7.747755 6.123724 6.123724 
C 7.747755 4.499694 8.660254 2.296726 8.660254 0 
C 8.660254 -2.296726 7.747755 -4.499694 6.123724 -6.123724 
C 4.499694 -7.747755 2.296726 -8.660254 0 -8.660254 
C -2.296726 -8.660254 -4.499694 -7.747755 -6.123724 -6.123724 
C -7.747755 -4.499694 -8.660254 -2.296726 -8.660254 0 
C -8.660254 2.296726 -7.747755 4.499694 -6.123724 6.123724 
C -4.499694 7.747755 -2.296726 8.660254 0 8.660254 
z
" style="stroke: #87ceeb"/>
    </defs>
    <g clip-path="url(#p8b14a3b8f6)">
     <use xlink:href="#m1537099b4f" x="124.982938" y="266.653219" style="fill: #87ceeb; stroke: #87ceeb"/>
     <use xlink:href="#m1537099b4f" x="125.223502" y="302.221307" style="fill: #87ceeb; stroke: #87ceeb"/>
     <use xlink:href="#m1537099b4f" x="90.987823" y="308.834333" style="fill: #87ceeb; stroke: #87ceeb"/>
     <use xlink:href="#m1537099b4f" x="65.305785" y="283.923193" style="fill: #87ceeb; stroke: #87ceeb"/>
     <use xlink:href="#m1537099b4f" x="595.944771" y="99.943909" style="fill: #87ceeb; stroke: #87ceeb"/>
     <use xlink:href="#m1537099b4f" x="550.31892" y="80.049034" style="fill: #87ceeb; stroke: #87ceeb"/>
     <use xlink:href="#m1537099b4f" x="618.694215" y="140.503025" style="fill: #87ceeb; stroke: #87ceeb"/>
     <use xlink:href="#m1537099b4f" x="116.892809" y="345.994384" style="fill: #87ceeb; stroke: #87ceeb"/>
     <use xlink:href="#m1537099b4f" x="520.539904" y="577.434422" style="fill: #87ceeb; stroke: #87ceeb"/>
     <use xlink:href="#m1537099b4f" x="577.206555" y="583.515973" style="fill: #87ceeb; stroke: #87ceeb"/>
     <use xlink:href="#m1537099b4f" x="516.27914" y="629.867216" style="fill: #87ceeb; stroke: #87ceeb"/>
     <use xlink:href="#m1537099b4f" x="485.362307" y="532.604675" style="fill: #87ceeb; stroke: #87ceeb"/>
    </g>
   </g>
   <g id="patch_3">
    <path d="M 7.2 687.598125 
L 7.2 22.318125 
" style="fill: none; stroke: #000000; stroke-width: 0.8; stroke-linejoin: miter; stroke-linecap: square"/>
   </g>
   <g id="patch_4">
    <path d="M 676.8 687.598125 
L 676.8 22.318125 
" style="fill: none; stroke: #000000; stroke-width: 0.8; stroke-linejoin: miter; stroke-linecap: square"/>
   </g>
   <g id="patch_5">
    <path d="M 7.2 687.598125 
L 676.8 687.598125 
" style="fill: none; stroke: #000000; stroke-width: 0.8; stroke-linejoin: miter; stroke-linecap: square"/>
   </g>
   <g id="patch_6">
    <path d="M 7.2 22.318125 
L 676.8 22.318125 
" style="fill: none; stroke: #000000; stroke-width: 0.8; stroke-linejoin: miter; stroke-linecap: square"/>
   </g>
   <g id="text_1">
    <g clip-path="url(#p8b14a3b8f6)">
     <!-- OKP-B-14 -->
     <g transform="translate(96.978876 269.964469) scale(0.12 -0.12)">
      <defs>
       <path id="DejaVuSans-4f" d="M 2522 4238 
Q 1834 4238 1429 3725 
Q 1025 3213 1025 2328 
Q 1025 1447 1429 934 
Q 1834 422 2522 422 
Q 3209 422 3611 934 
Q 4013 1447 4013 2328 
Q 4013 3213 3611 3725 
Q 3209 4238 2522 4238 
z
M 2522 4750 
Q 3503 4750 4090 4092 
Q 4678 3434 4678 2328 
Q 4678 1225 4090 567 
Q 3503 -91 2522 -91 
Q 1538 -91 948 565 
Q 359 1222 359 2328 
Q 359 3434 948 4092 
Q 1538 4750 2522 4750 
z
" transform="scale(0.015625)"/>
       <path id="DejaVuSans-4b" d="M 628 4666 
L 1259 4666 
L 1259 2694 
L 3353 4666 
L 4166 4666 
L 1850 2491 
L 4331 0 
L 3500 0 
L 1259 2247 
L 1259 0 
L 628 0 
L 628 4666 
z
" transform="scale(0.015625)"/>
       <path id="DejaVuSans-50" d="M 1259 4147 
L 1259 2394 
L 2053 2394 
Q 2494 2394 2734 2622 
Q 2975 2850 2975 3272 
Q 2975 3691 2734 3919 
Q 2494 4147 2053 4147 
L 1259 4147 
z
M 628 4666 
L 2053 4666 
Q 2838 4666 3239 4311 
Q 3641 3956 3641 3272 
Q 3641 2581 3239 2228 
Q 2838 1875 2053 1875 
L 1259 1875 
L 1259 0 
L 628 0 
L 628 4666 
z
" transform="scale(0.015625)"/>
       <path id="DejaVuSans-2d" d="M 313 2009 
L 1997 2009 
L 1997 1497 
L 313 1497 
L 313 2009 
z
" transform="scale(0.015625)"/>
       <path id="DejaVuSans-42" d="M 1259 2228 
L 1259 519 
L 2272 519 
Q 2781 519 3026 730 
Q 3272 941 3272 1375 
Q 3272 1813 3026 2020 
Q 2781 2228 2272 2228 
L 1259 2228 
z
M 1259 4147 
L 1259 2741 
L 2194 2741 
Q 2656 2741 2882 2914 
Q 3109 3088 3109 3444 
Q 3109 3797 2882 3972 
Q 2656 4147 2194 4147 
L 1259 4147 
z
M 628 4666 
L 2241 4666 
Q 2963 4666 3353 4366 
Q 3744 4066 3744 3513 
Q 3744 3084 3544 2831 
Q 3344 2578 2956 2516 
Q 3422 2416 3680 2098 
Q 3938 1781 3938 1306 
Q 3938 681 3513 340 
Q 3088 0 2303 0 
L 628 0 
L 628 4666 
z
" transform="scale(0.015625)"/>
       <path id="DejaVuSans-31" d="M 794 531 
L 1825 531 
L 1825 4091 
L 703 3866 
L 703 4441 
L 1819 4666 
L 2450 4666 
L 2450 531 
L 3481 531 
L 3481 0 
L 794 0 
L 794 531 
z
" transform="scale(0.015625)"/>
       <path id="DejaVuSans-34" d="M 2419 4116 
L 825 1625 
L 2419 1625 
L 2419 4116 
z
M 2253 4666 
L 3047 4666 
L 3047 1625 
L 3713 1625 
L 3713 1100 
L 3047 1100 
L 3047 0 
L 2419 0 
L 2419 1100 
L 313 1100 
L 313 1709 
L 2253 4666 
z
" transform="scale(0.015625)"/>
      </defs>
      <use xlink:href="#DejaVuSans-4f"/>
      <use xlink:href="#DejaVuSans-4b" x="78.710938"/>
      <use xlink:href="#DejaVuSans-50" x="144.287109"/>
      <use xlink:href="#DejaVuSans-2d" x="202.339844"/>
      <use xlink:href="#DejaVuSans-42" x="234.798828"/>
      <use xlink:href="#DejaVuSans-2d" x="303.402344"/>
      <use xlink:href="#DejaVuSans-31" x="339.486328"/>
      <use xlink:href="#DejaVuSans-34" x="403.109375"/>
     </g>
    </g>
   </g>
   <g id="text_2">
    <g clip-path="url(#p8b14a3b8f6)">
     <!-- HIMB11 (G) 095 -->
     <g transform="translate(77.41569 305.532557) scale(0.12 -0.12)">
      <defs>
       <path id="DejaVuSans-48" d="M 628 4666 
L 1259 4666 
L 1259 2753 
L 3553 2753 
L 3553 4666 
L 4184 4666 
L 4184 0 
L 3553 0 
L 3553 2222 
L 1259 2222 
L 1259 0 
L 628 0 
L 628 4666 
z
" transform="scale(0.015625)"/>
       <path id="DejaVuSans-49" d="M 628 4666 
L 1259 4666 
L 1259 0 
L 628 0 
L 628 4666 
z
" transform="scale(0.015625)"/>
       <path id="DejaVuSans-4d" d="M 628 4666 
L 1569 4666 
L 2759 1491 
L 3956 4666 
L 4897 4666 
L 4897 0 
L 4281 0 
L 4281 4097 
L 3078 897 
L 2444 897 
L 1241 4097 
L 1241 0 
L 628 0 
L 628 4666 
z
" transform="scale(0.015625)"/>
       <path id="DejaVuSans-20" transform="scale(0.015625)"/>
       <path id="DejaVuSans-28" d="M 1984 4856 
Q 1566 4138 1362 3434 
Q 1159 2731 1159 2009 
Q 1159 1288 1364 580 
Q 1569 -128 1984 -844 
L 1484 -844 
Q 1016 -109 783 600 
Q 550 1309 550 2009 
Q 550 2706 781 3412 
Q 1013 4119 1484 4856 
L 1984 4856 
z
" transform="scale(0.015625)"/>
       <path id="DejaVuSans-47" d="M 3809 666 
L 3809 1919 
L 2778 1919 
L 2778 2438 
L 4434 2438 
L 4434 434 
Q 4069 175 3628 42 
Q 3188 -91 2688 -91 
Q 1594 -91 976 548 
Q 359 1188 359 2328 
Q 359 3472 976 4111 
Q 1594 4750 2688 4750 
Q 3144 4750 3555 4637 
Q 3966 4525 4313 4306 
L 4313 3634 
Q 3963 3931 3569 4081 
Q 3175 4231 2741 4231 
Q 1884 4231 1454 3753 
Q 1025 3275 1025 2328 
Q 1025 1384 1454 906 
Q 1884 428 2741 428 
Q 3075 428 3337 486 
Q 3600 544 3809 666 
z
" transform="scale(0.015625)"/>
       <path id="DejaVuSans-29" d="M 513 4856 
L 1013 4856 
Q 1481 4119 1714 3412 
Q 1947 2706 1947 2009 
Q 1947 1309 1714 600 
Q 1481 -109 1013 -844 
L 513 -844 
Q 928 -128 1133 580 
Q 1338 1288 1338 2009 
Q 1338 2731 1133 3434 
Q 928 4138 513 4856 
z
" transform="scale(0.015625)"/>
       <path id="DejaVuSans-30" d="M 2034 4250 
Q 1547 4250 1301 3770 
Q 1056 3291 1056 2328 
Q 1056 1369 1301 889 
Q 1547 409 2034 409 
Q 2525 409 2770 889 
Q 3016 1369 3016 2328 
Q 3016 3291 2770 3770 
Q 2525 4250 2034 4250 
z
M 2034 4750 
Q 2819 4750 3233 4129 
Q 3647 3509 3647 2328 
Q 3647 1150 3233 529 
Q 2819 -91 2034 -91 
Q 1250 -91 836 529 
Q 422 1150 422 2328 
Q 422 3509 836 4129 
Q 1250 4750 2034 4750 
z
" transform="scale(0.015625)"/>
       <path id="DejaVuSans-39" d="M 703 97 
L 703 672 
Q 941 559 1184 500 
Q 1428 441 1663 441 
Q 2288 441 2617 861 
Q 2947 1281 2994 2138 
Q 2813 1869 2534 1725 
Q 2256 1581 1919 1581 
Q 1219 1581 811 2004 
Q 403 2428 403 3163 
Q 403 3881 828 4315 
Q 1253 4750 1959 4750 
Q 2769 4750 3195 4129 
Q 3622 3509 3622 2328 
Q 3622 1225 3098 567 
Q 2575 -91 1691 -91 
Q 1453 -91 1209 -44 
Q 966 3 703 97 
z
M 1959 2075 
Q 2384 2075 2632 2365 
Q 2881 2656 2881 3163 
Q 2881 3666 2632 3958 
Q 2384 4250 1959 4250 
Q 1534 4250 1286 3958 
Q 1038 3666 1038 3163 
Q 1038 2656 1286 2365 
Q 1534 2075 1959 2075 
z
" transform="scale(0.015625)"/>
       <path id="DejaVuSans-35" d="M 691 4666 
L 3169 4666 
L 3169 4134 
L 1269 4134 
L 1269 2991 
Q 1406 3038 1543 3061 
Q 1681 3084 1819 3084 
Q 2600 3084 3056 2656 
Q 3513 2228 3513 1497 
Q 3513 744 3044 326 
Q 2575 -91 1722 -91 
Q 1428 -91 1123 -41 
Q 819 9 494 109 
L 494 744 
Q 775 591 1075 516 
Q 1375 441 1709 441 
Q 2250 441 2565 725 
Q 2881 1009 2881 1497 
Q 2881 1984 2565 2268 
Q 2250 2553 1709 2553 
Q 1456 2553 1204 2497 
Q 953 2441 691 2322 
L 691 4666 
z
" transform="scale(0.015625)"/>
      </defs>
      <use xlink:href="#DejaVuSans-48"/>
      <use xlink:href="#DejaVuSans-49" x="75.195312"/>
      <use xlink:href="#DejaVuSans-4d" x="104.6875"/>
      <use xlink:href="#DejaVuSans-42" x="190.966797"/>
      <use xlink:href="#DejaVuSans-31" x="259.570312"/>
      <use xlink:href="#DejaVuSans-31" x="323.193359"/>
      <use xlink:href="#DejaVuSans-20" x="386.816406"/>
      <use xlink:href="#DejaVuSans-28" x="418.603516"/>
      <use xlink:href="#DejaVuSans-47" x="457.617188"/>
      <use xlink:href="#DejaVuSans-29" x="535.107422"/>
      <use xlink:href="#DejaVuSans-20" x="574.121094"/>
      <use xlink:href="#DejaVuSans-30" x="605.908203"/>
      <use xlink:href="#DejaVuSans-39" x="669.53125"/>
      <use xlink:href="#DejaVuSans-35" x="733.154297"/>
     </g>
    </g>
   </g>
   <g id="text_3">
    <g clip-path="url(#p8b14a3b8f6)">
     <!-- HIMB11 (G) 105 -->
     <g transform="translate(43.180011 312.145583) scale(0.12 -0.12)">
      <use xlink:href="#DejaVuSans-48"/>
      <use xlink:href="#DejaVuSans-49" x="75.195312"/>
      <use xlink:href="#DejaVuSans-4d" x="104.6875"/>
      <use xlink:href="#DejaVuSans-42" x="190.966797"/>
      <use xlink:href="#DejaVuSans-31" x="259.570312"/>
      <use xlink:href="#DejaVuSans-31" x="323.193359"/>
      <use xlink:href="#DejaVuSans-20" x="386.816406"/>
      <use xlink:href="#DejaVuSans-28" x="418.603516"/>
      <use xlink:href="#DejaVuSans-47" x="457.617188"/>
      <use xlink:href="#DejaVuSans-29" x="535.107422"/>
      <use xlink:href="#DejaVuSans-20" x="574.121094"/>
      <use xlink:href="#DejaVuSans-31" x="605.908203"/>
      <use xlink:href="#DejaVuSans-30" x="669.53125"/>
      <use xlink:href="#DejaVuSans-35" x="733.154297"/>
     </g>
    </g>
   </g>
   <g id="text_4">
    <g clip-path="url(#p8b14a3b8f6)">
     <!-- MexA -->
     <g transform="translate(48.88641 287.234443) scale(0.12 -0.12)">
      <defs>
       <path id="DejaVuSans-65" d="M 3597 1894 
L 3597 1613 
L 953 1613 
Q 991 1019 1311 708 
Q 1631 397 2203 397 
Q 2534 397 2845 478 
Q 3156 559 3463 722 
L 3463 178 
Q 3153 47 2828 -22 
Q 2503 -91 2169 -91 
Q 1331 -91 842 396 
Q 353 884 353 1716 
Q 353 2575 817 3079 
Q 1281 3584 2069 3584 
Q 2775 3584 3186 3129 
Q 3597 2675 3597 1894 
z
M 3022 2063 
Q 3016 2534 2758 2815 
Q 2500 3097 2075 3097 
Q 1594 3097 1305 2825 
Q 1016 2553 972 2059 
L 3022 2063 
z
" transform="scale(0.015625)"/>
       <path id="DejaVuSans-78" d="M 3513 3500 
L 2247 1797 
L 3578 0 
L 2900 0 
L 1881 1375 
L 863 0 
L 184 0 
L 1544 1831 
L 300 3500 
L 978 3500 
L 1906 2253 
L 2834 3500 
L 3513 3500 
z
" transform="scale(0.015625)"/>
       <path id="DejaVuSans-41" d="M 2188 4044 
L 1331 1722 
L 3047 1722 
L 2188 4044 
z
M 1831 4666 
L 2547 4666 
L 4325 0 
L 3669 0 
L 3244 1197 
L 1141 1197 
L 716 0 
L 50 0 
L 1831 4666 
z
" transform="scale(0.015625)"/>
      </defs>
      <use xlink:href="#DejaVuSans-4d"/>
      <use xlink:href="#DejaVuSans-65" x="86.279297"/>
      <use xlink:href="#DejaVuSans-78" x="146.052734"/>
      <use xlink:href="#DejaVuSans-41" x="205.232422"/>
     </g>
    </g>
   </g>
   <g id="text_5">
    <g clip-path="url(#p8b14a3b8f6)">
     <!-- qacEdelta1 -->
     <g transform="translate(562.354146 103.255159) scale(0.12 -0.12)">
      <defs>
       <path id="DejaVuSans-71" d="M 947 1747 
Q 947 1113 1208 752 
Q 1469 391 1925 391 
Q 2381 391 2643 752 
Q 2906 1113 2906 1747 
Q 2906 2381 2643 2742 
Q 2381 3103 1925 3103 
Q 1469 3103 1208 2742 
Q 947 2381 947 1747 
z
M 2906 525 
Q 2725 213 2448 61 
Q 2172 -91 1784 -91 
Q 1150 -91 751 415 
Q 353 922 353 1747 
Q 353 2572 751 3078 
Q 1150 3584 1784 3584 
Q 2172 3584 2448 3432 
Q 2725 3281 2906 2969 
L 2906 3500 
L 3481 3500 
L 3481 -1331 
L 2906 -1331 
L 2906 525 
z
" transform="scale(0.015625)"/>
       <path id="DejaVuSans-61" d="M 2194 1759 
Q 1497 1759 1228 1600 
Q 959 1441 959 1056 
Q 959 750 1161 570 
Q 1363 391 1709 391 
Q 2188 391 2477 730 
Q 2766 1069 2766 1631 
L 2766 1759 
L 2194 1759 
z
M 3341 1997 
L 3341 0 
L 2766 0 
L 2766 531 
Q 2569 213 2275 61 
Q 1981 -91 1556 -91 
Q 1019 -91 701 211 
Q 384 513 384 1019 
Q 384 1609 779 1909 
Q 1175 2209 1959 2209 
L 2766 2209 
L 2766 2266 
Q 2766 2663 2505 2880 
Q 2244 3097 1772 3097 
Q 1472 3097 1187 3025 
Q 903 2953 641 2809 
L 641 3341 
Q 956 3463 1253 3523 
Q 1550 3584 1831 3584 
Q 2591 3584 2966 3190 
Q 3341 2797 3341 1997 
z
" transform="scale(0.015625)"/>
       <path id="DejaVuSans-63" d="M 3122 3366 
L 3122 2828 
Q 2878 2963 2633 3030 
Q 2388 3097 2138 3097 
Q 1578 3097 1268 2742 
Q 959 2388 959 1747 
Q 959 1106 1268 751 
Q 1578 397 2138 397 
Q 2388 397 2633 464 
Q 2878 531 3122 666 
L 3122 134 
Q 2881 22 2623 -34 
Q 2366 -91 2075 -91 
Q 1284 -91 818 406 
Q 353 903 353 1747 
Q 353 2603 823 3093 
Q 1294 3584 2113 3584 
Q 2378 3584 2631 3529 
Q 2884 3475 3122 3366 
z
" transform="scale(0.015625)"/>
       <path id="DejaVuSans-45" d="M 628 4666 
L 3578 4666 
L 3578 4134 
L 1259 4134 
L 1259 2753 
L 3481 2753 
L 3481 2222 
L 1259 2222 
L 1259 531 
L 3634 531 
L 3634 0 
L 628 0 
L 628 4666 
z
" transform="scale(0.015625)"/>
       <path id="DejaVuSans-64" d="M 2906 2969 
L 2906 4863 
L 3481 4863 
L 3481 0 
L 2906 0 
L 2906 525 
Q 2725 213 2448 61 
Q 2172 -91 1784 -91 
Q 1150 -91 751 415 
Q 353 922 353 1747 
Q 353 2572 751 3078 
Q 1150 3584 1784 3584 
Q 2172 3584 2448 3432 
Q 2725 3281 2906 2969 
z
M 947 1747 
Q 947 1113 1208 752 
Q 1469 391 1925 391 
Q 2381 391 2643 752 
Q 2906 1113 2906 1747 
Q 2906 2381 2643 2742 
Q 2381 3103 1925 3103 
Q 1469 3103 1208 2742 
Q 947 2381 947 1747 
z
" transform="scale(0.015625)"/>
       <path id="DejaVuSans-6c" d="M 603 4863 
L 1178 4863 
L 1178 0 
L 603 0 
L 603 4863 
z
" transform="scale(0.015625)"/>
       <path id="DejaVuSans-74" d="M 1172 4494 
L 1172 3500 
L 2356 3500 
L 2356 3053 
L 1172 3053 
L 1172 1153 
Q 1172 725 1289 603 
Q 1406 481 1766 481 
L 2356 481 
L 2356 0 
L 1766 0 
Q 1100 0 847 248 
Q 594 497 594 1153 
L 594 3053 
L 172 3053 
L 172 3500 
L 594 3500 
L 594 4494 
L 1172 4494 
z
" transform="scale(0.015625)"/>
      </defs>
      <use xlink:href="#DejaVuSans-71"/>
      <use xlink:href="#DejaVuSans-61" x="63.476562"/>
      <use xlink:href="#DejaVuSans-63" x="124.755859"/>
      <use xlink:href="#DejaVuSans-45" x="179.736328"/>
      <use xlink:href="#DejaVuSans-64" x="242.919922"/>
      <use xlink:href="#DejaVuSans-65" x="306.396484"/>
      <use xlink:href="#DejaVuSans-6c" x="367.919922"/>
      <use xlink:href="#DejaVuSans-74" x="395.703125"/>
      <use xlink:href="#DejaVuSans-61" x="434.912109"/>
      <use xlink:href="#DejaVuSans-31" x="496.191406"/>
     </g>
    </g>
   </g>
   <g id="text_6">
    <g clip-path="url(#p8b14a3b8f6)">
     <!-- Aeromonas (G) 050 -->
     <g transform="translate(491.907045 83.360284) scale(0.12 -0.12)">
      <defs>
       <path id="DejaVuSans-72" d="M 2631 2963 
Q 2534 3019 2420 3045 
Q 2306 3072 2169 3072 
Q 1681 3072 1420 2755 
Q 1159 2438 1159 1844 
L 1159 0 
L 581 0 
L 581 3500 
L 1159 3500 
L 1159 2956 
Q 1341 3275 1631 3429 
Q 1922 3584 2338 3584 
Q 2397 3584 2469 3576 
Q 2541 3569 2628 3553 
L 2631 2963 
z
" transform="scale(0.015625)"/>
       <path id="DejaVuSans-6f" d="M 1959 3097 
Q 1497 3097 1228 2736 
Q 959 2375 959 1747 
Q 959 1119 1226 758 
Q 1494 397 1959 397 
Q 2419 397 2687 759 
Q 2956 1122 2956 1747 
Q 2956 2369 2687 2733 
Q 2419 3097 1959 3097 
z
M 1959 3584 
Q 2709 3584 3137 3096 
Q 3566 2609 3566 1747 
Q 3566 888 3137 398 
Q 2709 -91 1959 -91 
Q 1206 -91 779 398 
Q 353 888 353 1747 
Q 353 2609 779 3096 
Q 1206 3584 1959 3584 
z
" transform="scale(0.015625)"/>
       <path id="DejaVuSans-6d" d="M 3328 2828 
Q 3544 3216 3844 3400 
Q 4144 3584 4550 3584 
Q 5097 3584 5394 3201 
Q 5691 2819 5691 2113 
L 5691 0 
L 5113 0 
L 5113 2094 
Q 5113 2597 4934 2840 
Q 4756 3084 4391 3084 
Q 3944 3084 3684 2787 
Q 3425 2491 3425 1978 
L 3425 0 
L 2847 0 
L 2847 2094 
Q 2847 2600 2669 2842 
Q 2491 3084 2119 3084 
Q 1678 3084 1418 2786 
Q 1159 2488 1159 1978 
L 1159 0 
L 581 0 
L 581 3500 
L 1159 3500 
L 1159 2956 
Q 1356 3278 1631 3431 
Q 1906 3584 2284 3584 
Q 2666 3584 2933 3390 
Q 3200 3197 3328 2828 
z
" transform="scale(0.015625)"/>
       <path id="DejaVuSans-6e" d="M 3513 2113 
L 3513 0 
L 2938 0 
L 2938 2094 
Q 2938 2591 2744 2837 
Q 2550 3084 2163 3084 
Q 1697 3084 1428 2787 
Q 1159 2491 1159 1978 
L 1159 0 
L 581 0 
L 581 3500 
L 1159 3500 
L 1159 2956 
Q 1366 3272 1645 3428 
Q 1925 3584 2291 3584 
Q 2894 3584 3203 3211 
Q 3513 2838 3513 2113 
z
" transform="scale(0.015625)"/>
       <path id="DejaVuSans-73" d="M 2834 3397 
L 2834 2853 
Q 2591 2978 2328 3040 
Q 2066 3103 1784 3103 
Q 1356 3103 1142 2972 
Q 928 2841 928 2578 
Q 928 2378 1081 2264 
Q 1234 2150 1697 2047 
L 1894 2003 
Q 2506 1872 2764 1633 
Q 3022 1394 3022 966 
Q 3022 478 2636 193 
Q 2250 -91 1575 -91 
Q 1294 -91 989 -36 
Q 684 19 347 128 
L 347 722 
Q 666 556 975 473 
Q 1284 391 1588 391 
Q 1994 391 2212 530 
Q 2431 669 2431 922 
Q 2431 1156 2273 1281 
Q 2116 1406 1581 1522 
L 1381 1569 
Q 847 1681 609 1914 
Q 372 2147 372 2553 
Q 372 3047 722 3315 
Q 1072 3584 1716 3584 
Q 2034 3584 2315 3537 
Q 2597 3491 2834 3397 
z
" transform="scale(0.015625)"/>
      </defs>
      <use xlink:href="#DejaVuSans-41"/>
      <use xlink:href="#DejaVuSans-65" x="66.658203"/>
      <use xlink:href="#DejaVuSans-72" x="128.181641"/>
      <use xlink:href="#DejaVuSans-6f" x="167.044922"/>
      <use xlink:href="#DejaVuSans-6d" x="228.226562"/>
      <use xlink:href="#DejaVuSans-6f" x="325.638672"/>
      <use xlink:href="#DejaVuSans-6e" x="386.820312"/>
      <use xlink:href="#DejaVuSans-61" x="450.199219"/>
      <use xlink:href="#DejaVuSans-73" x="511.478516"/>
      <use xlink:href="#DejaVuSans-20" x="563.578125"/>
      <use xlink:href="#DejaVuSans-28" x="595.365234"/>
      <use xlink:href="#DejaVuSans-47" x="634.378906"/>
      <use xlink:href="#DejaVuSans-29" x="711.869141"/>
      <use xlink:href="#DejaVuSans-20" x="750.882812"/>
      <use xlink:href="#DejaVuSans-30" x="782.669922"/>
      <use xlink:href="#DejaVuSans-35" x="846.292969"/>
      <use xlink:href="#DejaVuSans-30" x="909.916016"/>
     </g>
    </g>
   </g>
   <g id="text_7">
    <g clip-path="url(#p8b14a3b8f6)">
     <!-- Thiopseudomonas (G) 184 -->
     <g transform="translate(539.261715 143.814275) scale(0.12 -0.12)">
      <defs>
       <path id="DejaVuSans-54" d="M -19 4666 
L 3928 4666 
L 3928 4134 
L 2272 4134 
L 2272 0 
L 1638 0 
L 1638 4134 
L -19 4134 
L -19 4666 
z
" transform="scale(0.015625)"/>
       <path id="DejaVuSans-68" d="M 3513 2113 
L 3513 0 
L 2938 0 
L 2938 2094 
Q 2938 2591 2744 2837 
Q 2550 3084 2163 3084 
Q 1697 3084 1428 2787 
Q 1159 2491 1159 1978 
L 1159 0 
L 581 0 
L 581 4863 
L 1159 4863 
L 1159 2956 
Q 1366 3272 1645 3428 
Q 1925 3584 2291 3584 
Q 2894 3584 3203 3211 
Q 3513 2838 3513 2113 
z
" transform="scale(0.015625)"/>
       <path id="DejaVuSans-69" d="M 603 3500 
L 1178 3500 
L 1178 0 
L 603 0 
L 603 3500 
z
M 603 4863 
L 1178 4863 
L 1178 4134 
L 603 4134 
L 603 4863 
z
" transform="scale(0.015625)"/>
       <path id="DejaVuSans-70" d="M 1159 525 
L 1159 -1331 
L 581 -1331 
L 581 3500 
L 1159 3500 
L 1159 2969 
Q 1341 3281 1617 3432 
Q 1894 3584 2278 3584 
Q 2916 3584 3314 3078 
Q 3713 2572 3713 1747 
Q 3713 922 3314 415 
Q 2916 -91 2278 -91 
Q 1894 -91 1617 61 
Q 1341 213 1159 525 
z
M 3116 1747 
Q 3116 2381 2855 2742 
Q 2594 3103 2138 3103 
Q 1681 3103 1420 2742 
Q 1159 2381 1159 1747 
Q 1159 1113 1420 752 
Q 1681 391 2138 391 
Q 2594 391 2855 752 
Q 3116 1113 3116 1747 
z
" transform="scale(0.015625)"/>
       <path id="DejaVuSans-75" d="M 544 1381 
L 544 3500 
L 1119 3500 
L 1119 1403 
Q 1119 906 1312 657 
Q 1506 409 1894 409 
Q 2359 409 2629 706 
Q 2900 1003 2900 1516 
L 2900 3500 
L 3475 3500 
L 3475 0 
L 2900 0 
L 2900 538 
Q 2691 219 2414 64 
Q 2138 -91 1772 -91 
Q 1169 -91 856 284 
Q 544 659 544 1381 
z
M 1991 3584 
L 1991 3584 
z
" transform="scale(0.015625)"/>
       <path id="DejaVuSans-38" d="M 2034 2216 
Q 1584 2216 1326 1975 
Q 1069 1734 1069 1313 
Q 1069 891 1326 650 
Q 1584 409 2034 409 
Q 2484 409 2743 651 
Q 3003 894 3003 1313 
Q 3003 1734 2745 1975 
Q 2488 2216 2034 2216 
z
M 1403 2484 
Q 997 2584 770 2862 
Q 544 3141 544 3541 
Q 544 4100 942 4425 
Q 1341 4750 2034 4750 
Q 2731 4750 3128 4425 
Q 3525 4100 3525 3541 
Q 3525 3141 3298 2862 
Q 3072 2584 2669 2484 
Q 3125 2378 3379 2068 
Q 3634 1759 3634 1313 
Q 3634 634 3220 271 
Q 2806 -91 2034 -91 
Q 1263 -91 848 271 
Q 434 634 434 1313 
Q 434 1759 690 2068 
Q 947 2378 1403 2484 
z
M 1172 3481 
Q 1172 3119 1398 2916 
Q 1625 2713 2034 2713 
Q 2441 2713 2670 2916 
Q 2900 3119 2900 3481 
Q 2900 3844 2670 4047 
Q 2441 4250 2034 4250 
Q 1625 4250 1398 4047 
Q 1172 3844 1172 3481 
z
" transform="scale(0.015625)"/>
      </defs>
      <use xlink:href="#DejaVuSans-54"/>
      <use xlink:href="#DejaVuSans-68" x="61.083984"/>
      <use xlink:href="#DejaVuSans-69" x="124.462891"/>
      <use xlink:href="#DejaVuSans-6f" x="152.246094"/>
      <use xlink:href="#DejaVuSans-70" x="213.427734"/>
      <use xlink:href="#DejaVuSans-73" x="276.904297"/>
      <use xlink:href="#DejaVuSans-65" x="329.003906"/>
      <use xlink:href="#DejaVuSans-75" x="390.527344"/>
      <use xlink:href="#DejaVuSans-64" x="453.90625"/>
      <use xlink:href="#DejaVuSans-6f" x="517.382812"/>
      <use xlink:href="#DejaVuSans-6d" x="578.564453"/>
      <use xlink:href="#DejaVuSans-6f" x="675.976562"/>
      <use xlink:href="#DejaVuSans-6e" x="737.158203"/>
      <use xlink:href="#DejaVuSans-61" x="800.537109"/>
      <use xlink:href="#DejaVuSans-73" x="861.816406"/>
      <use xlink:href="#DejaVuSans-20" x="913.916016"/>
      <use xlink:href="#DejaVuSans-28" x="945.703125"/>
      <use xlink:href="#DejaVuSans-47" x="984.716797"/>
      <use xlink:href="#DejaVuSans-29" x="1062.207031"/>
      <use xlink:href="#DejaVuSans-20" x="1101.220703"/>
      <use xlink:href="#DejaVuSans-31" x="1133.007812"/>
      <use xlink:href="#DejaVuSans-38" x="1196.630859"/>
      <use xlink:href="#DejaVuSans-34" x="1260.253906"/>
     </g>
    </g>
   </g>
   <g id="text_8">
    <g clip-path="url(#p8b14a3b8f6)">
     <!-- RanA -->
     <g transform="translate(101.274996 349.305634) scale(0.12 -0.12)">
      <defs>
       <path id="DejaVuSans-52" d="M 2841 2188 
Q 3044 2119 3236 1894 
Q 3428 1669 3622 1275 
L 4263 0 
L 3584 0 
L 2988 1197 
Q 2756 1666 2539 1819 
Q 2322 1972 1947 1972 
L 1259 1972 
L 1259 0 
L 628 0 
L 628 4666 
L 2053 4666 
Q 2853 4666 3247 4331 
Q 3641 3997 3641 3322 
Q 3641 2881 3436 2590 
Q 3231 2300 2841 2188 
z
M 1259 4147 
L 1259 2491 
L 2053 2491 
Q 2509 2491 2742 2702 
Q 2975 2913 2975 3322 
Q 2975 3731 2742 3939 
Q 2509 4147 2053 4147 
L 1259 4147 
z
" transform="scale(0.015625)"/>
      </defs>
      <use xlink:href="#DejaVuSans-52"/>
      <use xlink:href="#DejaVuSans-61" x="67.232422"/>
      <use xlink:href="#DejaVuSans-6e" x="128.511719"/>
      <use xlink:href="#DejaVuSans-41" x="191.890625"/>
     </g>
    </g>
   </g>
   <g id="text_9">
    <g clip-path="url(#p8b14a3b8f6)">
     <!-- mdtF -->
     <g transform="translate(505.083342 580.745672) scale(0.12 -0.12)">
      <defs>
       <path id="DejaVuSans-46" d="M 628 4666 
L 3309 4666 
L 3309 4134 
L 1259 4134 
L 1259 2759 
L 3109 2759 
L 3109 2228 
L 1259 2228 
L 1259 0 
L 628 0 
L 628 4666 
z
" transform="scale(0.015625)"/>
      </defs>
      <use xlink:href="#DejaVuSans-6d"/>
      <use xlink:href="#DejaVuSans-64" x="97.412109"/>
      <use xlink:href="#DejaVuSans-74" x="160.888672"/>
      <use xlink:href="#DejaVuSans-46" x="200.097656"/>
     </g>
    </g>
   </g>
   <g id="text_10">
    <g clip-path="url(#p8b14a3b8f6)">
     <!-- Escherichia coli (S) 244 -->
     <g transform="translate(506.949367 586.827223) scale(0.12 -0.12)">
      <defs>
       <path id="DejaVuSans-53" d="M 3425 4513 
L 3425 3897 
Q 3066 4069 2747 4153 
Q 2428 4238 2131 4238 
Q 1616 4238 1336 4038 
Q 1056 3838 1056 3469 
Q 1056 3159 1242 3001 
Q 1428 2844 1947 2747 
L 2328 2669 
Q 3034 2534 3370 2195 
Q 3706 1856 3706 1288 
Q 3706 609 3251 259 
Q 2797 -91 1919 -91 
Q 1588 -91 1214 -16 
Q 841 59 441 206 
L 441 856 
Q 825 641 1194 531 
Q 1563 422 1919 422 
Q 2459 422 2753 634 
Q 3047 847 3047 1241 
Q 3047 1584 2836 1778 
Q 2625 1972 2144 2069 
L 1759 2144 
Q 1053 2284 737 2584 
Q 422 2884 422 3419 
Q 422 4038 858 4394 
Q 1294 4750 2059 4750 
Q 2388 4750 2728 4690 
Q 3069 4631 3425 4513 
z
" transform="scale(0.015625)"/>
       <path id="DejaVuSans-32" d="M 1228 531 
L 3431 531 
L 3431 0 
L 469 0 
L 469 531 
Q 828 903 1448 1529 
Q 2069 2156 2228 2338 
Q 2531 2678 2651 2914 
Q 2772 3150 2772 3378 
Q 2772 3750 2511 3984 
Q 2250 4219 1831 4219 
Q 1534 4219 1204 4116 
Q 875 4013 500 3803 
L 500 4441 
Q 881 4594 1212 4672 
Q 1544 4750 1819 4750 
Q 2544 4750 2975 4387 
Q 3406 4025 3406 3419 
Q 3406 3131 3298 2873 
Q 3191 2616 2906 2266 
Q 2828 2175 2409 1742 
Q 1991 1309 1228 531 
z
" transform="scale(0.015625)"/>
      </defs>
      <use xlink:href="#DejaVuSans-45"/>
      <use xlink:href="#DejaVuSans-73" x="63.183594"/>
      <use xlink:href="#DejaVuSans-63" x="115.283203"/>
      <use xlink:href="#DejaVuSans-68" x="170.263672"/>
      <use xlink:href="#DejaVuSans-65" x="233.642578"/>
      <use xlink:href="#DejaVuSans-72" x="295.166016"/>
      <use xlink:href="#DejaVuSans-69" x="336.279297"/>
      <use xlink:href="#DejaVuSans-63" x="364.0625"/>
      <use xlink:href="#DejaVuSans-68" x="419.042969"/>
      <use xlink:href="#DejaVuSans-69" x="482.421875"/>
      <use xlink:href="#DejaVuSans-61" x="510.205078"/>
      <use xlink:href="#DejaVuSans-20" x="571.484375"/>
      <use xlink:href="#DejaVuSans-63" x="603.271484"/>
      <use xlink:href="#DejaVuSans-6f" x="658.251953"/>
      <use xlink:href="#DejaVuSans-6c" x="719.433594"/>
      <use xlink:href="#DejaVuSans-69" x="747.216797"/>
      <use xlink:href="#DejaVuSans-20" x="775"/>
      <use xlink:href="#DejaVuSans-28" x="806.787109"/>
      <use xlink:href="#DejaVuSans-53" x="845.800781"/>
      <use xlink:href="#DejaVuSans-29" x="909.277344"/>
      <use xlink:href="#DejaVuSans-20" x="948.291016"/>
      <use xlink:href="#DejaVuSans-32" x="980.078125"/>
      <use xlink:href="#DejaVuSans-34" x="1043.701172"/>
      <use xlink:href="#DejaVuSans-34" x="1107.324219"/>
     </g>
    </g>
   </g>
   <g id="text_11">
    <g clip-path="url(#p8b14a3b8f6)">
     <!-- Phocaeicola (G) 108 -->
     <g transform="translate(455.94164 633.178466) scale(0.12 -0.12)">
      <use xlink:href="#DejaVuSans-50"/>
      <use xlink:href="#DejaVuSans-68" x="60.302734"/>
      <use xlink:href="#DejaVuSans-6f" x="123.681641"/>
      <use xlink:href="#DejaVuSans-63" x="184.863281"/>
      <use xlink:href="#DejaVuSans-61" x="239.84375"/>
      <use xlink:href="#DejaVuSans-65" x="301.123047"/>
      <use xlink:href="#DejaVuSans-69" x="362.646484"/>
      <use xlink:href="#DejaVuSans-63" x="390.429688"/>
      <use xlink:href="#DejaVuSans-6f" x="445.410156"/>
      <use xlink:href="#DejaVuSans-6c" x="506.591797"/>
      <use xlink:href="#DejaVuSans-61" x="534.375"/>
      <use xlink:href="#DejaVuSans-20" x="595.654297"/>
      <use xlink:href="#DejaVuSans-28" x="627.441406"/>
      <use xlink:href="#DejaVuSans-47" x="666.455078"/>
      <use xlink:href="#DejaVuSans-29" x="743.945312"/>
      <use xlink:href="#DejaVuSans-20" x="782.958984"/>
      <use xlink:href="#DejaVuSans-31" x="814.746094"/>
      <use xlink:href="#DejaVuSans-30" x="878.369141"/>
      <use xlink:href="#DejaVuSans-38" x="941.992188"/>
     </g>
    </g>
   </g>
   <g id="text_12">
    <g clip-path="url(#p8b14a3b8f6)">
     <!-- Phocaeicola (G) 125 -->
     <g transform="translate(425.024807 535.915925) scale(0.12 -0.12)">
      <use xlink:href="#DejaVuSans-50"/>
      <use xlink:href="#DejaVuSans-68" x="60.302734"/>
      <use xlink:href="#DejaVuSans-6f" x="123.681641"/>
      <use xlink:href="#DejaVuSans-63" x="184.863281"/>
      <use xlink:href="#DejaVuSans-61" x="239.84375"/>
      <use xlink:href="#DejaVuSans-65" x="301.123047"/>
      <use xlink:href="#DejaVuSans-69" x="362.646484"/>
      <use xlink:href="#DejaVuSans-63" x="390.429688"/>
      <use xlink:href="#DejaVuSans-6f" x="445.410156"/>
      <use xlink:href="#DejaVuSans-6c" x="506.591797"/>
      <use xlink:href="#DejaVuSans-61" x="534.375"/>
      <use xlink:href="#DejaVuSans-20" x="595.654297"/>
      <use xlink:href="#DejaVuSans-28" x="627.441406"/>
      <use xlink:href="#DejaVuSans-47" x="666.455078"/>
      <use xlink:href="#DejaVuSans-29" x="743.945312"/>
      <use xlink:href="#DejaVuSans-20" x="782.958984"/>
      <use xlink:href="#DejaVuSans-31" x="814.746094"/>
      <use xlink:href="#DejaVuSans-32" x="878.369141"/>
      <use xlink:href="#DejaVuSans-35" x="941.992188"/>
     </g>
    </g>
   </g>
   <g id="text_13">
    <!-- ../../Output/Dataset2/Positive Correlation Network between ARGs and MAGs - Dataset 2 -->
    <g transform="translate(79.99875 16.318125) scale(0.12 -0.12)">
     <defs>
      <path id="DejaVuSans-2e" d="M 684 794 
L 1344 794 
L 1344 0 
L 684 0 
L 684 794 
z
" transform="scale(0.015625)"/>
      <path id="DejaVuSans-2f" d="M 1625 4666 
L 2156 4666 
L 531 -594 
L 0 -594 
L 1625 4666 
z
" transform="scale(0.015625)"/>
      <path id="DejaVuSans-44" d="M 1259 4147 
L 1259 519 
L 2022 519 
Q 2988 519 3436 956 
Q 3884 1394 3884 2338 
Q 3884 3275 3436 3711 
Q 2988 4147 2022 4147 
L 1259 4147 
z
M 628 4666 
L 1925 4666 
Q 3281 4666 3915 4102 
Q 4550 3538 4550 2338 
Q 4550 1131 3912 565 
Q 3275 0 1925 0 
L 628 0 
L 628 4666 
z
" transform="scale(0.015625)"/>
      <path id="DejaVuSans-76" d="M 191 3500 
L 800 3500 
L 1894 563 
L 2988 3500 
L 3597 3500 
L 2284 0 
L 1503 0 
L 191 3500 
z
" transform="scale(0.015625)"/>
      <path id="DejaVuSans-43" d="M 4122 4306 
L 4122 3641 
Q 3803 3938 3442 4084 
Q 3081 4231 2675 4231 
Q 1875 4231 1450 3742 
Q 1025 3253 1025 2328 
Q 1025 1406 1450 917 
Q 1875 428 2675 428 
Q 3081 428 3442 575 
Q 3803 722 4122 1019 
L 4122 359 
Q 3791 134 3420 21 
Q 3050 -91 2638 -91 
Q 1578 -91 968 557 
Q 359 1206 359 2328 
Q 359 3453 968 4101 
Q 1578 4750 2638 4750 
Q 3056 4750 3426 4639 
Q 3797 4528 4122 4306 
z
" transform="scale(0.015625)"/>
      <path id="DejaVuSans-4e" d="M 628 4666 
L 1478 4666 
L 3547 763 
L 3547 4666 
L 4159 4666 
L 4159 0 
L 3309 0 
L 1241 3903 
L 1241 0 
L 628 0 
L 628 4666 
z
" transform="scale(0.015625)"/>
      <path id="DejaVuSans-77" d="M 269 3500 
L 844 3500 
L 1563 769 
L 2278 3500 
L 2956 3500 
L 3675 769 
L 4391 3500 
L 4966 3500 
L 4050 0 
L 3372 0 
L 2619 2869 
L 1863 0 
L 1184 0 
L 269 3500 
z
" transform="scale(0.015625)"/>
      <path id="DejaVuSans-6b" d="M 581 4863 
L 1159 4863 
L 1159 1991 
L 2875 3500 
L 3609 3500 
L 1753 1863 
L 3688 0 
L 2938 0 
L 1159 1709 
L 1159 0 
L 581 0 
L 581 4863 
z
" transform="scale(0.015625)"/>
      <path id="DejaVuSans-62" d="M 3116 1747 
Q 3116 2381 2855 2742 
Q 2594 3103 2138 3103 
Q 1681 3103 1420 2742 
Q 1159 2381 1159 1747 
Q 1159 1113 1420 752 
Q 1681 391 2138 391 
Q 2594 391 2855 752 
Q 3116 1113 3116 1747 
z
M 1159 2969 
Q 1341 3281 1617 3432 
Q 1894 3584 2278 3584 
Q 2916 3584 3314 3078 
Q 3713 2572 3713 1747 
Q 3713 922 3314 415 
Q 2916 -91 2278 -91 
Q 1894 -91 1617 61 
Q 1341 213 1159 525 
L 1159 0 
L 581 0 
L 581 4863 
L 1159 4863 
L 1159 2969 
z
" transform="scale(0.015625)"/>
     </defs>
     <use xlink:href="#DejaVuSans-2e"/>
     <use xlink:href="#DejaVuSans-2e" x="31.787109"/>
     <use xlink:href="#DejaVuSans-2f" x="63.574219"/>
     <use xlink:href="#DejaVuSans-2e" x="97.265625"/>
     <use xlink:href="#DejaVuSans-2e" x="129.052734"/>
     <use xlink:href="#DejaVuSans-2f" x="160.839844"/>
     <use xlink:href="#DejaVuSans-4f" x="194.53125"/>
     <use xlink:href="#DejaVuSans-75" x="273.242188"/>
     <use xlink:href="#DejaVuSans-74" x="336.621094"/>
     <use xlink:href="#DejaVuSans-70" x="375.830078"/>
     <use xlink:href="#DejaVuSans-75" x="439.306641"/>
     <use xlink:href="#DejaVuSans-74" x="502.685547"/>
     <use xlink:href="#DejaVuSans-2f" x="541.894531"/>
     <use xlink:href="#DejaVuSans-44" x="575.585938"/>
     <use xlink:href="#DejaVuSans-61" x="652.587891"/>
     <use xlink:href="#DejaVuSans-74" x="713.867188"/>
     <use xlink:href="#DejaVuSans-61" x="753.076172"/>
     <use xlink:href="#DejaVuSans-73" x="814.355469"/>
     <use xlink:href="#DejaVuSans-65" x="866.455078"/>
     <use xlink:href="#DejaVuSans-74" x="927.978516"/>
     <use xlink:href="#DejaVuSans-32" x="967.1875"/>
     <use xlink:href="#DejaVuSans-2f" x="1030.810547"/>
     <use xlink:href="#DejaVuSans-50" x="1064.501953"/>
     <use xlink:href="#DejaVuSans-6f" x="1121.179688"/>
     <use xlink:href="#DejaVuSans-73" x="1182.361328"/>
     <use xlink:href="#DejaVuSans-69" x="1234.460938"/>
     <use xlink:href="#DejaVuSans-74" x="1262.244141"/>
     <use xlink:href="#DejaVuSans-69" x="1301.453125"/>
     <use xlink:href="#DejaVuSans-76" x="1329.236328"/>
     <use xlink:href="#DejaVuSans-65" x="1388.416016"/>
     <use xlink:href="#DejaVuSans-20" x="1449.939453"/>
     <use xlink:href="#DejaVuSans-43" x="1481.726562"/>
     <use xlink:href="#DejaVuSans-6f" x="1551.550781"/>
     <use xlink:href="#DejaVuSans-72" x="1612.732422"/>
     <use xlink:href="#DejaVuSans-72" x="1652.095703"/>
     <use xlink:href="#DejaVuSans-65" x="1690.958984"/>
     <use xlink:href="#DejaVuSans-6c" x="1752.482422"/>
     <use xlink:href="#DejaVuSans-61" x="1780.265625"/>
     <use xlink:href="#DejaVuSans-74" x="1841.544922"/>
     <use xlink:href="#DejaVuSans-69" x="1880.753906"/>
     <use xlink:href="#DejaVuSans-6f" x="1908.537109"/>
     <use xlink:href="#DejaVuSans-6e" x="1969.71875"/>
     <use xlink:href="#DejaVuSans-20" x="2033.097656"/>
     <use xlink:href="#DejaVuSans-4e" x="2064.884766"/>
     <use xlink:href="#DejaVuSans-65" x="2139.689453"/>
     <use xlink:href="#DejaVuSans-74" x="2201.212891"/>
     <use xlink:href="#DejaVuSans-77" x="2240.421875"/>
     <use xlink:href="#DejaVuSans-6f" x="2322.208984"/>
     <use xlink:href="#DejaVuSans-72" x="2383.390625"/>
     <use xlink:href="#DejaVuSans-6b" x="2424.503906"/>
     <use xlink:href="#DejaVuSans-20" x="2482.414062"/>
     <use xlink:href="#DejaVuSans-62" x="2514.201172"/>
     <use xlink:href="#DejaVuSans-65" x="2577.677734"/>
     <use xlink:href="#DejaVuSans-74" x="2639.201172"/>
     <use xlink:href="#DejaVuSans-77" x="2678.410156"/>
     <use xlink:href="#DejaVuSans-65" x="2760.197266"/>
     <use xlink:href="#DejaVuSans-65" x="2821.720703"/>
     <use xlink:href="#DejaVuSans-6e" x="2883.244141"/>
     <use xlink:href="#DejaVuSans-20" x="2946.623047"/>
     <use xlink:href="#DejaVuSans-41" x="2978.410156"/>
     <use xlink:href="#DejaVuSans-52" x="3046.818359"/>
     <use xlink:href="#DejaVuSans-47" x="3116.300781"/>
     <use xlink:href="#DejaVuSans-73" x="3193.791016"/>
     <use xlink:href="#DejaVuSans-20" x="3245.890625"/>
     <use xlink:href="#DejaVuSans-61" x="3277.677734"/>
     <use xlink:href="#DejaVuSans-6e" x="3338.957031"/>
     <use xlink:href="#DejaVuSans-64" x="3402.335938"/>
     <use xlink:href="#DejaVuSans-20" x="3465.8125"/>
     <use xlink:href="#DejaVuSans-4d" x="3497.599609"/>
     <use xlink:href="#DejaVuSans-41" x="3583.878906"/>
     <use xlink:href="#DejaVuSans-47" x="3650.537109"/>
     <use xlink:href="#DejaVuSans-73" x="3728.027344"/>
     <use xlink:href="#DejaVuSans-20" x="3780.126953"/>
     <use xlink:href="#DejaVuSans-2d" x="3811.914062"/>
     <use xlink:href="#DejaVuSans-20" x="3847.998047"/>
     <use xlink:href="#DejaVuSans-44" x="3879.785156"/>
     <use xlink:href="#DejaVuSans-61" x="3956.787109"/>
     <use xlink:href="#DejaVuSans-74" x="4018.066406"/>
     <use xlink:href="#DejaVuSans-61" x="4057.275391"/>
     <use xlink:href="#DejaVuSans-73" x="4118.554688"/>
     <use xlink:href="#DejaVuSans-65" x="4170.654297"/>
     <use xlink:href="#DejaVuSans-74" x="4232.177734"/>
     <use xlink:href="#DejaVuSans-20" x="4271.386719"/>
     <use xlink:href="#DejaVuSans-32" x="4303.173828"/>
    </g>
   </g>
  </g>
 </g>
 <defs>
  <clipPath id="p8b14a3b8f6">
   <rect x="7.2" y="22.318125" width="669.6" height="665.28"/>
  </clipPath>
 </defs>
</svg>
